<?xml version="1.0" encoding="UTF-8"?>
<svg version="1.1" xmlns="http://www.w3.org/2000/svg" width="235" height="234">
<path d="M0 0 C0.69455292 0.00304138 1.38910583 0.00608276 2.10470581 0.00921631 C34.75138161 0.21975852 63.68131521 13.17468218 86.57543945 36.34521484 C107.7411322 58.53843095 118.94947243 89.12187262 118.59936523 119.67456055 C117.53394585 152.86147161 103.75513125 182.53606188 79.78125 205.3046875 C52.79952697 229.85140077 19.54866705 236.09071731 -15.75 234.4375 C-21.97171304 233.81431539 -27.82177957 232.38619714 -33.75 230.4375 C-34.75208496 230.12401611 -34.75208496 230.12401611 -35.77441406 229.80419922 C-50.5532554 225.09542758 -64.09636647 217.69502436 -75.75 207.4375 C-76.61753906 206.72464844 -77.48507813 206.01179687 -78.37890625 205.27734375 C-99.77238551 187.04876043 -113.89983751 159.34007594 -116.75 131.4375 C-119.06798681 97.22056558 -111.27103086 66.79098162 -88.75 40.4375 C-88.08613281 39.62796875 -87.42226562 38.8184375 -86.73828125 37.984375 C-74.31871756 23.38392675 -57.99473998 13.29421878 -40.1875 6.5625 C-39.11012573 6.15112793 -39.11012573 6.15112793 -38.01098633 5.73144531 C-25.57016448 1.29075732 -13.13612569 -0.12299484 0 0 Z M-64.75 40.4375 C-65.57113281 41.11425781 -66.39226562 41.79101562 -67.23828125 42.48828125 C-88.93446688 60.94522299 -98.56433498 86.85625364 -101.03515625 114.64453125 C-101.82587264 139.22549716 -92.93427263 164.0603202 -76.75 182.4375 C-76.07453125 183.25605469 -75.3990625 184.07460937 -74.703125 184.91796875 C-59.10553866 203.27644172 -36.11213356 215.12747875 -12.265625 218.15234375 C15.58493969 220.411334 42.82364223 214.11362778 64.46875 195.76953125 C67.50727712 193.09760027 70.38889837 190.29860163 73.25 187.4375 C74.06339844 186.62410156 74.87679687 185.81070313 75.71484375 184.97265625 C94.81199982 164.83086942 102.00534923 138.65575296 101.56640625 111.5390625 C100.57073775 84.85181398 87.54365234 60.44133106 68.40625 42.25390625 C47.76094577 23.40356813 21.29699012 15.4553978 -6.26318359 16.30566406 C-27.81473367 17.44819666 -48.54192648 26.34467261 -64.75 40.4375 Z " fill="#344A5A" transform="translate(116.75,-0.4375)"/>
<path d="M0 0 C33.66 0 67.32 0 102 0 C102 22 102 22 97 28 C94.18784488 29.40607756 91.8595578 29.11950486 88.71435547 29.11352539 C88.07032776 29.11367142 87.42630005 29.11381744 86.76275635 29.1139679 C84.63086598 29.1132704 82.49906263 29.10548566 80.3671875 29.09765625 C78.89031014 29.09579149 77.41343216 29.09436786 75.93655396 29.09336853 C72.04687801 29.08954792 68.15723933 29.07972152 64.26757812 29.06866455 C59.60198232 29.0566435 54.93637407 29.05204602 50.27076721 29.04621124 C43.18048555 29.03650953 36.09028566 29.0173498 29 29 C29 44.51 29 60.02 29 76 C19.43 76 9.86 76 0 76 C0 50.92 0 25.84 0 0 Z " fill="#354A5A" transform="translate(66,103)"/>
<path d="M0 0 C0.92688126 -0.00014603 1.85376251 -0.00029205 2.80873108 -0.0004425 C5.8821138 0.00025593 8.95543642 0.00804512 12.02880859 0.01586914 C14.15587328 0.01773357 16.28293839 0.01915735 18.41000366 0.02015686 C24.01600321 0.02398011 29.62197697 0.03380877 35.22796631 0.04486084 C40.94543102 0.05507909 46.66289989 0.05965537 52.38037109 0.06469727 C63.6043426 0.07543119 74.82828817 0.09302645 86.05224609 0.11352539 C86.05224609 9.68352539 86.05224609 19.25352539 86.05224609 29.11352539 C52.39224609 29.11352539 18.73224609 29.11352539 -15.94775391 29.11352539 C-15.94775391 7.11352539 -15.94775391 7.11352539 -10.94775391 1.11352539 C-7.56439735 -0.57815289 -3.7208738 -0.01518229 0 0 Z " fill="#354A5A" transform="translate(81.94775390625,56.886474609375)"/>
<path d="M0 0 C18.15 0 36.3 0 55 0 C55 9.57 55 19.14 55 29 C36.85 29 18.7 29 0 29 C0 19.43 0 9.86 0 0 Z " fill="#F15A24" transform="translate(113,150)"/>
</svg>
