<?xml version="1.0" encoding="UTF-8"?>
<svg xmlns="http://www.w3.org/2000/svg" viewBox="0 0 127 40" fill="none">
  <g clip-path="url(#clip0_2356_129104)">
    <path d="M14.5025 0H16.257C21.653 0.408018 25.7924 2.98057 28.6057 7.58097C29.9743 9.85902 30.6847 12.4719 30.658 15.1293C30.6967 15.7497 30.4945 16.3612 30.0936 16.8363C29.6926 17.3113 29.1238 17.6133 28.5057 17.6794C27.9158 17.7598 27.3175 17.613 26.8318 17.2686C26.3462 16.9243 26.0096 16.4082 25.8903 15.825C25.8252 15.4648 25.7924 15.0995 25.7924 14.7335C25.6572 12.1705 24.5814 9.74735 22.7709 7.92804C20.9605 6.10873 18.5427 5.02107 15.9804 4.87329C13.418 4.72551 10.8912 5.52798 8.8836 7.12708C6.87602 8.72619 5.52878 11.0096 5.09978 13.5401C5.00569 14.0645 4.9613 14.5966 4.96717 15.1293C4.98086 15.4505 4.93113 15.7713 4.82084 16.0733C4.71054 16.3753 4.54184 16.6526 4.32436 16.8894C4.10688 17.1262 3.84488 17.3179 3.55333 17.4534C3.26178 17.589 2.94638 17.6658 2.62515 17.6794H2.51703C1.88143 17.6837 1.27009 17.4357 0.817212 16.9897C0.364339 16.5437 0.106952 15.9362 0.101562 15.3007V15.064C0.115631 11.8993 1.14859 8.82336 3.04745 6.29163C5.76281 2.61947 9.437 0.532463 13.9721 0.0346815L14.5025 0Z" fill="black"></path>
    <path d="M18.905 39.2984H9.90001C8.51071 39.2984 7.54983 38.5374 7.21934 37.3113C7.06607 36.6532 7.17815 35.9611 7.53133 35.385C7.8845 34.8088 8.45035 34.3949 9.10642 34.2329C9.24647 34.1923 9.39112 34.1697 9.53688 34.1655H27.9099C29.2339 34.1655 30.1948 34.8286 30.5253 36.02C30.6236 36.3362 30.6584 36.6688 30.6277 36.9985C30.5971 37.3282 30.5016 37.6487 30.3467 37.9414C30.1918 38.2341 29.9806 38.4933 29.7252 38.7041C29.4698 38.915 29.1753 39.0732 28.8585 39.1699H28.8381C28.6342 39.2346 28.4217 39.2683 28.2078 39.2698C25.5556 39.3025 22.879 39.3025 20.229 39.3025L18.905 39.2984Z" fill="black"></path>
    <path d="M18.8727 32.0477H9.73519C9.15103 32.0473 8.5844 31.8481 8.12863 31.4827C7.67286 31.1173 7.35515 30.6075 7.22782 30.0374C7.1005 29.4673 7.17115 28.8708 7.42816 28.3462C7.68516 27.8217 8.11318 27.4002 8.6417 27.1514C8.97022 26.9826 9.33324 26.8919 9.70255 26.8862H28.1531C28.8351 26.8862 29.4892 27.1572 29.9714 27.6394C30.4537 28.1217 30.7246 28.7758 30.7246 29.4578C30.7246 30.1398 30.4537 30.7939 29.9714 31.2761C29.4892 31.7584 28.8351 32.0293 28.1531 32.0293C25.0297 32.0477 21.9512 32.0477 18.8727 32.0477Z" fill="black"></path>
    <path d="M18.8726 24.7973H9.76774C9.08305 24.805 8.42327 24.5408 7.93301 24.0628C7.44276 23.5848 7.16202 22.9319 7.15234 22.2472V22.2146C7.15177 21.5439 7.41584 20.9001 7.88722 20.423C8.35859 19.9459 8.99917 19.674 9.66981 19.6665H28.0428C28.6705 19.6645 29.2767 19.8944 29.7452 20.312C30.2138 20.7296 30.5115 21.3056 30.5813 21.9293C30.6511 22.5531 30.4881 23.1806 30.1235 23.6915C29.7589 24.2024 29.2185 24.5606 28.6059 24.6974C28.4095 24.7361 28.2103 24.7586 28.0102 24.7647L18.8726 24.7973Z" fill="black"></path>
    <path d="M2.51757 27.0822C3.17575 27.074 3.81032 27.3271 4.28222 27.786C4.75411 28.2449 5.02483 28.8722 5.03504 29.5303V29.5569C5.03089 30.2261 4.76528 30.8672 4.29492 31.3433C3.82455 31.8194 3.18671 32.0927 2.51757 32.1049C1.85329 32.0996 1.21757 31.8341 0.74689 31.3653C0.276207 30.8965 0.00809086 30.2619 0.000101916 29.5977C-0.00285837 29.2703 0.0586974 28.9455 0.181254 28.6419C0.303811 28.3383 0.484969 28.0618 0.714383 27.8282C0.943797 27.5947 1.21697 27.4086 1.51832 27.2806C1.81966 27.1525 2.14326 27.0852 2.47065 27.0822H2.51757Z" fill="#ED6C50"></path>
    <path d="M2.51738 19.8315C3.17829 19.8341 3.8119 20.0954 4.28247 20.5595C4.75304 21.0236 5.02312 21.6535 5.03485 22.3143C5.0307 22.9836 4.76509 23.6247 4.29473 24.1007C3.82436 24.5768 3.18652 24.8502 2.51738 24.8624C1.85025 24.8624 1.21044 24.5974 0.738705 24.1256C0.266971 23.6539 0.00195312 23.0141 0.00195312 22.347C0.00195312 21.6798 0.266971 21.04 0.738705 20.5683C1.21044 20.0966 1.85025 19.8315 2.51738 19.8315V19.8315Z" fill="#ED6C50"></path>
    <path d="M2.51747 34.3325C3.1846 34.3325 3.82441 34.5976 4.29614 35.0693C4.76788 35.541 5.0329 36.1808 5.0329 36.848C5.0329 37.5151 4.76788 38.1549 4.29614 38.6266C3.82441 39.0984 3.1846 39.3634 2.51747 39.3634C1.84833 39.3512 1.21049 39.0778 0.740122 38.6017C0.269758 38.1257 0.00414754 37.4846 0 36.8153C0.00646179 36.1532 0.274589 35.5205 0.745858 35.0553C1.21713 34.5902 1.85327 34.3303 2.51543 34.3325H2.51747Z" fill="#ED6C50"></path>
    <path d="M48.3742 22.3142C49.5374 23.1144 50.4167 24.263 50.8856 25.5947V21.3105H54.7026V39.7611H50.8856V35.4769C50.4172 36.8099 49.5379 37.96 48.3742 38.7614C47.191 39.587 45.7629 39.9998 44.0901 39.9998C42.5758 40.0249 41.0843 39.6294 39.7814 38.8573C38.4964 38.0741 37.4665 36.9344 36.8171 35.5768C36.1031 34.1474 35.7461 32.4616 35.7461 30.5195C35.7461 28.6004 36.1031 26.9262 36.8171 25.4968C37.4662 24.1384 38.4961 22.998 39.7814 22.2143C41.0826 21.4437 42.5719 21.0489 44.0839 21.0739C45.7595 21.0739 47.1896 21.4873 48.3742 22.3142ZM41.1911 26.0476C40.1751 27.1356 39.6671 28.6256 39.6671 30.5174C39.6671 32.4093 40.1751 33.8992 41.1911 34.9873C42.2071 36.0753 43.563 36.6193 45.259 36.6193C46.2726 36.6336 47.2709 36.3705 48.1457 35.8584C49.0002 35.3504 49.6961 34.6143 50.1552 33.7326C50.6401 32.7334 50.8919 31.6372 50.8919 30.5266C50.8919 29.416 50.6401 28.3198 50.1552 27.3206C49.6998 26.4316 49.0034 25.6886 48.1457 25.1765C47.272 24.6678 46.276 24.4075 45.2651 24.4237C43.5664 24.4237 42.2084 24.965 41.1911 26.0476V26.0476Z" fill="black"></path>
    <path d="M60.729 14.3437C61.214 13.9068 61.8518 13.6788 62.5039 13.7092C63.1607 13.6801 63.803 13.9077 64.2951 14.3437C64.518 14.5469 64.6948 14.7955 64.8134 15.0728C64.932 15.3502 64.9897 15.6498 64.9826 15.9513C64.9926 16.2485 64.936 16.5441 64.8171 16.8166C64.6981 17.0891 64.5198 17.3315 64.2951 17.5263C63.7954 17.9467 63.1564 18.1651 62.5039 18.1383C61.8559 18.1676 61.2212 17.9487 60.729 17.5263C60.5092 17.3294 60.3353 17.0867 60.2197 16.8153C60.104 16.5438 60.0495 16.2503 60.0598 15.9554C60.051 15.6547 60.1061 15.3555 60.2214 15.0777C60.3368 14.7999 60.5098 14.5497 60.729 14.3437V14.3437ZM64.4134 21.3086V39.7591H60.5903V21.3086H64.4134Z" fill="black"></path>
    <path d="M76.8355 22.0636C78.0511 21.3455 79.4428 20.9803 80.8545 21.0089V25.1605H79.7161C78.0419 25.1605 76.6968 25.5685 75.6808 26.3845C74.6648 27.2006 74.1568 28.5456 74.1568 30.4198V39.7614H70.3398V21.3088H74.1568V24.932C74.7625 23.7432 75.6908 22.749 76.8355 22.0636V22.0636Z" fill="black"></path>
    <path d="M88.8229 14.9805V39.7594H85.0059V14.9805H88.8229Z" fill="black"></path>
    <path d="M94.8853 14.3437C95.3703 13.9068 96.0081 13.6788 96.6601 13.7092C97.3168 13.681 97.9589 13.9084 98.4513 14.3437C98.6744 14.5467 98.851 14.7954 98.9693 15.0728C99.0876 15.3502 99.1447 15.6498 99.1368 15.9513C99.1471 16.2483 99.0908 16.5438 98.9722 16.8163C98.8536 17.0888 98.6757 17.3314 98.4513 17.5263C97.9511 17.9459 97.3125 18.1641 96.6601 18.1383C96.0122 18.1676 95.3774 17.9487 94.8853 17.5263C94.665 17.3288 94.4907 17.0855 94.3747 16.8133C94.2588 16.5412 94.2039 16.2469 94.2141 15.9513C94.2062 15.6512 94.2619 15.3527 94.3776 15.0757C94.4933 14.7986 94.6663 14.5492 94.8853 14.3437V14.3437ZM98.5574 21.3086V39.7591H94.7506V21.3086H98.5574Z" fill="black"></path>
    <path d="M109.96 18.2119C109.357 18.7559 109.055 19.6882 109.057 21.0088V21.3087H113.108V24.5912H109.049V39.7593H105.197V24.5912H102.686V21.3087H105.197V20.6967C105.197 18.4431 105.856 16.7519 107.174 15.623C108.492 14.4942 110.464 13.9977 113.09 14.1338V17.4917C111.603 17.421 110.56 17.6611 109.96 18.2119Z" fill="black"></path>
    <path d="M126.761 36.4439V39.7591H124.417C122.452 39.7591 120.962 39.283 119.948 38.331C118.933 37.379 118.425 35.7993 118.424 33.5919V24.5584H115.771V21.3085H118.424V16.7285H122.275V21.3146H126.729V24.5645H122.275V33.6612C122.275 34.7098 122.47 35.4354 122.861 35.838C123.251 36.2406 123.938 36.4412 124.921 36.4398L126.761 36.4439Z" fill="black"></path>
  </g>
  <defs>
    <clipPath id="clip0_2356_129104">
      <rect width="126.761" height="40" fill="white"></rect>
    </clipPath>
  </defs>
</svg>
