<svg width="28" height="28" viewBox="0 0 28 28" fill="none" xmlns="http://www.w3.org/2000/svg">
<path d="M25.9788 9.07202V6.79789C25.9776 5.75628 25.5633 4.75766 24.8268 4.02112C24.0903 3.28459 23.0917 2.8703 22.05 2.86914H6.69379C5.65209 2.8703 4.65338 3.28456 3.91671 4.02107C3.18004 4.75758 2.76555 5.7562 2.76416 6.79789V11.8554C2.76416 12.0642 2.84713 12.2646 2.99481 12.4122C3.1425 12.5599 3.3428 12.6429 3.55166 12.6429C3.76052 12.6429 3.96082 12.5599 4.10851 12.4122C4.25619 12.2646 4.33916 12.0642 4.33916 11.8554V6.79789C4.34009 6.174 4.5884 5.57595 5.02963 5.13487C5.47087 4.6938 6.06902 4.44571 6.69291 4.44502H22.05C22.6738 4.44571 23.2719 4.69383 23.713 5.13492C24.1541 5.57602 24.4022 6.17408 24.4029 6.79789V8.96702H21.7648C20.8116 8.96817 19.8978 9.34734 19.2238 10.0214C18.5497 10.6954 18.1706 11.6092 18.1694 12.5624V13.1023C18.1706 14.0555 18.5497 14.9693 19.2238 15.6433C19.8978 16.3173 20.8116 16.6965 21.7648 16.6976H24.4029V18.872C24.4022 19.4958 24.1541 20.0939 23.713 20.535C23.2719 20.9761 22.6738 21.2242 22.05 21.2249H14.1488C13.9399 21.2249 13.7396 21.3079 13.5919 21.4555C13.4443 21.6032 13.3613 21.8035 13.3613 22.0124C13.3613 22.2213 13.4443 22.4216 13.5919 22.5692C13.7396 22.7169 13.9399 22.7999 14.1488 22.7999H22.05C23.0917 22.7987 24.0903 22.3844 24.8268 21.6479C25.5633 20.9114 25.9776 19.9128 25.9788 18.8711V16.5909C26.2885 16.4768 26.5559 16.2708 26.7452 16.0003C26.9344 15.7299 27.0365 15.4081 27.0375 15.078V10.5831C27.0375 9.89014 26.5948 9.30127 25.9788 9.07202ZM19.7453 13.1023V12.5624C19.7458 12.0267 19.9588 11.5131 20.3376 11.1343C20.7163 10.7555 21.23 10.5425 21.7657 10.542L25.4625 10.5849V15.0798C25.4623 15.0911 25.4577 15.1018 25.4497 15.1098C25.4417 15.1178 25.431 15.1224 25.4197 15.1226H21.7657C21.23 15.1219 20.7166 14.9089 20.3378 14.5301C19.9591 14.1514 19.746 13.6379 19.7453 13.1023Z" fill="#181C25"/>
<path d="M6.41465 13.8379C3.78877 13.8379 0.962524 14.6499 0.962524 16.4323V22.5363C0.962524 23.5749 1.9504 24.3886 3.74415 24.8305C4.54565 25.0265 5.46965 25.1306 6.41552 25.1306C7.31726 25.1356 8.21648 25.0349 9.09477 24.8305C10.8876 24.3895 11.8755 23.574 11.8755 22.5363V16.4323C11.8738 14.6499 9.04402 13.8379 6.41465 13.8379ZM10.2988 19.4746C10.262 19.5674 9.89102 19.9603 8.71415 20.2446C7.35965 20.5841 5.46965 20.5859 4.11602 20.2429C2.92515 19.955 2.56202 19.5543 2.53752 19.4851V18.3153C2.89102 18.4754 3.29615 18.6128 3.75552 18.7213C4.62697 18.9259 5.51952 19.0269 6.41465 19.0223C7.3544 19.0223 8.27665 18.9181 9.07465 18.723C9.4946 18.6265 9.90424 18.4896 10.2979 18.3144V19.4746H10.2988ZM6.41465 15.4138C8.83315 15.4138 10.1588 16.1348 10.2944 16.4314C10.2366 16.5416 9.84815 16.9205 8.70715 17.1909C7.34565 17.5234 5.5064 17.5269 4.12477 17.1891C2.94352 16.91 2.5734 16.5119 2.5384 16.4515V16.4445C2.63552 16.1575 3.96202 15.4138 6.41465 15.4138ZM10.2996 22.5223C10.2743 22.6063 9.91115 23.0079 8.7194 23.301C7.34302 23.6344 5.47752 23.6335 4.11777 23.3019C2.92427 23.0079 2.56115 22.6063 2.53665 22.5371V21.3734C2.92343 21.5429 3.325 21.6765 3.73627 21.7724C5.32265 22.1714 7.50052 22.1731 9.08865 21.7741C9.54452 21.6639 9.94877 21.5291 10.2988 21.3725L10.2996 22.5223Z" fill="#0A5CFF"/>
<path d="M12.3323 6.9668H7.82082C7.61197 6.9668 7.41166 7.04977 7.26398 7.19745C7.11629 7.34513 7.03333 7.54544 7.03333 7.7543C7.03333 7.96315 7.11629 8.16346 7.26398 8.31114C7.41166 8.45883 7.61197 8.5418 7.82082 8.5418H12.3323C12.5412 8.5418 12.7415 8.45883 12.8892 8.31114C13.0369 8.16346 13.1198 7.96315 13.1198 7.7543C13.1198 7.54544 13.0369 7.34513 12.8892 7.19745C12.7415 7.04977 12.5412 6.9668 12.3323 6.9668Z" fill="#181C25"/>
</svg>
